<?xml version="1.0" encoding="utf-8"?>
<!-- Generator: Adobe Illustrator 26.1.0, SVG Export Plug-In . SVG Version: 6.00 Build 0)  -->
<svg version="1.1" id="Layer_1" xmlns="http://www.w3.org/2000/svg" xmlns:xlink="http://www.w3.org/1999/xlink" x="0px" y="0px"
	 viewBox="0 0 700 272.1" style="enable-background:new 0 0 700 272.1;" xml:space="preserve">
<style type="text/css">
	.st0{fill:#97A3AE;}
	.st1{fill:#004876;}
	.st2{font-family:'MuseoSansRounded-700';}
	.st3{font-size:27px;}
	.st4{fill:#FFFFFF;}
	.st5{clip-path:url(#SVGID_00000067921655901353663610000002634404067456308118_);}
	.st6{clip-path:url(#SVGID_00000048486905124528389120000006343151993132801954_);}
</style>
<g>
	<path class="st0" d="M660.4,56.49c-2.85-1.55-6.08-2.4-9.33-2.45h-0.7c-6.29,0.1-12.07,3.06-15.86,8.13
		c-0.44,0.61-53.92,76.67-53.92,76.67l0.79,0.44c3.04,1.68,6.47,2.56,9.92,2.56c6.99,0,13.45-3.51,17.26-9.36l52.63-75.55
		L660.4,56.49z"/>
	<path class="st0" d="M555.85,150.96c-2.85-1.55-6.08-2.4-9.33-2.45l-0.7,0c-6.3,0.1-12.07,3.06-15.86,8.13
		c-0.47,0.66-53.91,76.66-53.91,76.66l0.79,0.44c3.03,1.68,6.46,2.56,9.92,2.56c7,0,13.45-3.51,17.26-9.37l52.64-75.55
		L555.85,150.96z"/>
	<path class="st0" d="M605.15,180.52l-0.8,0.43c-2.84,1.55-6.07,2.4-9.32,2.45h-0.71c-6.3-0.09-12.07-3.06-15.86-8.12
		c-0.17-0.24-19.18-27.24-34.6-49.13c-5.16-7.33-9.91-14.07-13.41-19.05c-3.65-5.18-5.95-8.45-5.95-8.45l0.79-0.44
		c3.04-1.68,6.47-2.56,9.93-2.56c6.03,0,11.65,2.59,15.52,7.07c0.63,0.71,1.21,1.48,1.73,2.28l9.95,14.26L605.15,180.52z"/>
	<path class="st1" d="M88.75,91.85l-0.96-0.17c-13.67-2.46-25.47-4.58-25.47-16.07c0-10.99,8.91-18.1,22.7-18.1
		c13.22,0,21.78,6.75,22.33,17.6l0.07,1.29h20.52L127.88,75c-0.76-22.61-18.13-37.81-43.24-37.81c-25.75,0-43.06,15.66-43.06,38.98
		c0,28.53,22.92,32.65,41.34,35.96l0.85,0.15c14.18,2.56,25.39,4.58,25.39,16.1c0,11.57-9.24,18.47-24.72,18.47
		c-14.89,0-23.99-6.92-24.35-18.51l-0.04-1.32H38.81l0.03,1.4c0.56,23.54,18.47,38.75,45.62,38.75c27.83,0,45.81-15.45,45.81-39.35
		C130.28,99.25,108.21,95.32,88.75,91.85z"/>
	<path class="st1" d="M214.26,69.57v49.64c0,18.28-9.36,28.76-25.67,28.76c-16.31,0-25.67-10.48-25.67-28.76V69.57h-19.93v49.64
		c0,30.03,17.05,47.96,45.6,47.96c28.56,0,45.61-17.93,45.61-47.96V69.57H214.26z"/>
	<rect x="251.55" y="69.57" class="st1" width="20.18" height="95.17"/>
	<path class="st1" d="M467.62,117.14c0-28.98-20.97-50.01-49.86-50.01c-29.1,0-50.22,21.03-50.22,50.01
		c0,28.99,21.12,50.03,50.22,50.03c18.92,0,34.62-8.52,43.08-23.36l0.16-0.28l-18.57-7.4l-0.45,0.67
		c-5.05,7.63-12.74,11.19-24.22,11.19c-14.97,0-25.99-8.77-28.86-22.92h78.72V117.14z M417.76,86.32c14.1,0,24.67,7.51,28.35,20.11
		H389.6C393.31,93.83,403.81,86.32,417.76,86.32z"/>
	<text transform="matrix(1 0 0 1 38.8037 205.4879)" class="st1 st2 st3">Empowering Pharmacy Innovation</text>
	<path class="st1" d="M251.55,37.19v0.28c0,10.97,8.92,19.89,19.89,19.89h0.28V37.19H251.55z"/>
	<path class="st1" d="M343.48,135.77l-0.08,0.31c-2.11,7.9-7.77,11.9-16.82,11.9c-11.48,0-17.55-6.78-17.55-19.6V88.56
		c0,0,34.34,0,34.34,0c5,0,9.7-1.95,13.24-5.48s5.48-8.24,5.48-13.24v-0.28l-53.06,0V36.83h-20.18v91.55
		c0,24.65,13.75,38.79,37.72,38.79c18.34,0,31.02-8.45,35.68-23.78l0.08-0.25L343.48,135.77z"/>
	<path class="st0" d="M577.18,61.89c-6.23-15.86-20.79-25.2-41.54-26.02c-0.08,0-0.15,0-0.23-0.01c-0.9-0.04-1.79-0.07-2.7-0.07
		l-50.22,0.01v130.93h19.99V55.8l32.05-0.01c17.11,0.62,26.87,9.89,26.87,25.63c0,9.76-3.74,17.02-10.67,21.29
		c-4.66,2.87-10.74,4.39-18.1,4.39h-2.18c3.5,4.98,8.26,11.72,13.41,19.05c4.16-0.68,8-1.76,11.5-3.21
		c2.53-1.04,4.88-2.27,7.05-3.69c11.7-7.64,18.18-20.66,18.18-37.83C580.59,74.13,579.42,67.59,577.18,61.89z"/>
</g>
</svg>
